<svg width="auto" height="auto" viewBox="0 0 369 86" xmlns="http://www.w3.org/2000/svg">
    <g fill="none" fill-rule="evenodd">
        <path d="M199.934 3.23a34.34 34.34 0 0 1 9.116 6.19 34.333 34.333 0 0 1 6.42 8.288l.006-.01.257.481c.384.718.742 1.453 1.072 2.193a34.458 34.458 0 0 1 2.965 15.536 34.304 34.304 0 0 1-3.198 13.022l-.006.01-.002.006-.089.186v.002l-.093.196-.004.008-.004.006-.091.188v.002l-.095.193-.002.004-.004.006-.095.192-.002.002-.097.192v.002l-.004.004-.1.19-.001.002-.1.192-.002.004v.002a34.185 34.185 0 0 1-7.789 9.82 34.412 34.412 0 0 1-13.153 7.13c-.43.126-.866.24-1.305.348l3.91-8.382a27.764 27.764 0 0 0 6.34-4.193 27.676 27.676 0 0 0 6.32-8.125l.01-.016.135-.273.136-.275.045-.09h-.003l.005-.007.002-.002.074-.156.073-.156.002-.004h.002l.144-.317.004-.008.04-.091.124-.28.12-.279.007-.018v-.002a27.626 27.626 0 0 0 2.16-10.063 27.884 27.884 0 0 0-7.3-19.463 27.684 27.684 0 0 0-8.741-6.398 27.736 27.736 0 0 0-10.522-2.585 27.79 27.79 0 0 0-10.724 1.659 27.832 27.832 0 0 0-8.878 5.26 27.632 27.632 0 0 0-6.32 8.124v.001l-.01.019-.118.23-.042.085-.01.02-.146.298-.002.01h-.002l-.15.311h.002l-.002.006h-.002l-.143.314v.002l-.004.01v-.002l-.04.091-.124.28-.12.28-.008.017v.002a27.637 27.637 0 0 0-1.298 17.615l-3.908 8.382a34.791 34.791 0 0 1-1.49-3.485 34.462 34.462 0 0 1-2.05-13.28c.193-4.38 1.23-8.8 3.198-13.019l.002-.006.188-.392.004-.01.002-.004.093-.189.096-.196.004-.006.002-.006.095-.188v-.002l.099-.192v-.002l.004-.006.097-.192.101-.19.004-.005v-.004l.101-.19h.002l.101-.19h.002l.002-.006.104-.188.105-.188.004-.008.107-.188.105-.184.002-.003a34.219 34.219 0 0 1 7.65-9.1 34.44 34.44 0 0 1 10.334-5.952 34.934 34.934 0 0 1 2.322-.755c.78-.22 1.571-.418 2.368-.584l.534-.113-.006.01a34.257 34.257 0 0 1 10.475-.41c3.582.414 7.158 1.399 10.601 3.005" fill="#3DEABF"/>
        <path d="m191.395 21.443.071.035.005.002s10.884 4.788 10.33 11.912l-6.25 13.41 3.537 5.841-1.381 2.953-3.954-4.933-14.758 31.6s-.033.092-.11.249l-.046.091c-.738 1.411-4.348 6.464-16.209.7-13.633-6.623-9.52-13.613-9.52-13.613l14.757-31.648-6.273.04 1.382-2.959 6.685-.926 6.147-13.17c4.818-4.688 14.63-.054 15.587.416zm-30.284 41.524-2.648 4.834c-1.421 3.048 3.467 5.869 6.41 7.349l.35.174c.396.196.745.363 1.024.499 2.229 1.126 9.243 4.31 10.94.71l2.049-5.114-18.125-8.452zm11.521-28.265-1.774 6.6 18.661 8.702 3.831-5.375c2.854-6.207-7.765-10.52-7.765-10.52l-.019-.01-.055-.028c-.924-.471-10.233-5.045-12.879.631z" fill="#093769"/>
        <g fill-rule="nonzero">
            <path d="M127.442 18a2 2 0 0 1 1.995 1.85l.005.15v47a2 2 0 0 1-3.994.15l-.006-.15V20a2 2 0 0 1 2-2z" fill="#3DEABF"/>
            <path d="M118.522 9a2 2 0 0 1 1.995 1.85l.005.15v65a2 2 0 0 1-3.994.15l-.006-.15V11a2 2 0 0 1 2-2z" fill="#093769"/>
            <path d="M109.602 26a2 2 0 0 1 1.994 1.85l.006.15v31a2 2 0 0 1-3.995.15l-.005-.15V28a2 2 0 0 1 2-2zM100.681 33a2 2 0 0 1 1.995 1.85l.005.15v17a2 2 0 0 1-3.994.15L98.68 52V35a2 2 0 0 1 2-2z" fill="#3DEABF"/>
            <path d="M91.761 18a2 2 0 0 1 1.995 1.85l.005.15v47a2 2 0 0 1-3.994.15L89.76 67V20a2 2 0 0 1 2-2z" fill="#093769"/>
            <path d="M82.84 9a2 2 0 0 1 1.995 1.85l.006.15v65a2 2 0 0 1-3.995.15l-.005-.15V11a2 2 0 0 1 2-2z" fill="#3DEABF"/>
            <path d="M73.92 26a2 2 0 0 1 1.995 1.85l.005.15v31a2 2 0 0 1-3.994.15L71.92 59V28a2 2 0 0 1 2-2zM65 33a2 2 0 0 1 1.995 1.85L67 35v17a2 2 0 0 1-3.995.15L63 52V35a2 2 0 0 1 2-2z" fill="#093769"/>
            <path d="M56.08 18a2 2 0 0 1 1.994 1.85l.006.15v47a2 2 0 0 1-3.995.15L54.08 67V20a2 2 0 0 1 2-2z" fill="#3DEABF"/>
            <path d="M47.16 9a2 2 0 0 1 1.994 1.85l.005.15v65a2 2 0 0 1-3.994.15l-.006-.15V11a2 2 0 0 1 2-2z" fill="#093769"/>
            <path d="M38.239 26a2 2 0 0 1 1.994 1.85l.006.15v31a2 2 0 0 1-3.995.15L36.24 59V28a2 2 0 0 1 2-2z" fill="#3DEABF"/>
            <path d="M29.319 33a2 2 0 0 1 1.994 1.85l.006.15v17a2 2 0 0 1-3.995.15L27.32 52V35a2 2 0 0 1 2-2z" fill="#093769"/>
            <path d="M20.398 18a2 2 0 0 1 1.995 1.85l.005.15v47a2 2 0 0 1-3.994.15l-.006-.15V20a2 2 0 0 1 2-2zM11.478 9a2 2 0 0 1 1.994 1.85l.006.15v65a2 2 0 0 1-3.995.15L9.478 76V11a2 2 0 0 1 2-2z" fill="#3DEABF"/>
            <path d="M2.558 26a2 2 0 0 1 1.994 1.85l.006.15v31a2 2 0 0 1-3.995.15L.558 59V28a2 2 0 0 1 2-2z" fill="#093769"/>
            <g>
                <path d="M241.558 18a2 2 0 0 0-1.995 1.85l-.005.15v47a2 2 0 0 0 3.994.15l.006-.15V20a2 2 0 0 0-2-2z" fill="#3DEABF"/>
                <path d="M250.478 9a2 2 0 0 0-1.995 1.85l-.005.15v65a2 2 0 0 0 3.994.15l.006-.15V11a2 2 0 0 0-2-2z" fill="#093769"/>
                <path d="M259.398 26a2 2 0 0 0-1.994 1.85l-.006.15v31a2 2 0 0 0 3.995.15l.005-.15V28a2 2 0 0 0-2-2zM268.319 33a2 2 0 0 0-1.995 1.85l-.005.15v17a2 2 0 0 0 3.994.15l.006-.15V35a2 2 0 0 0-2-2z" fill="#3DEABF"/>
                <path d="M277.239 18a2 2 0 0 0-1.995 1.85l-.005.15v47a2 2 0 0 0 3.994.15l.006-.15V20a2 2 0 0 0-2-2z" fill="#093769"/>
                <path d="M286.16 9a2 2 0 0 0-1.995 1.85l-.006.15v65a2 2 0 0 0 3.995.15l.005-.15V11a2 2 0 0 0-2-2z" fill="#3DEABF"/>
                <path d="M295.08 26a2 2 0 0 0-1.995 1.85l-.005.15v31a2 2 0 0 0 3.994.15l.006-.15V28a2 2 0 0 0-2-2zM304 33a2 2 0 0 0-1.995 1.85L302 35v17a2 2 0 0 0 3.995.15L306 52V35a2 2 0 0 0-2-2z" fill="#093769"/>
                <path d="M312.92 18a2 2 0 0 0-1.994 1.85l-.006.15v47a2 2 0 0 0 3.995.15l.005-.15V20a2 2 0 0 0-2-2z" fill="#3DEABF"/>
                <path d="M321.84 9a2 2 0 0 0-1.994 1.85l-.005.15v65a2 2 0 0 0 3.994.15l.006-.15V11a2 2 0 0 0-2-2z" fill="#093769"/>
                <path d="M330.761 26a2 2 0 0 0-1.994 1.85l-.006.15v31a2 2 0 0 0 3.995.15l.005-.15V28a2 2 0 0 0-2-2z" fill="#3DEABF"/>
                <path d="M339.681 33a2 2 0 0 0-1.994 1.85l-.006.15v17a2 2 0 0 0 3.995.15l.005-.15V35a2 2 0 0 0-2-2z" fill="#093769"/>
                <path d="M348.602 18a2 2 0 0 0-1.995 1.85l-.005.15v47a2 2 0 0 0 3.994.15l.006-.15V20a2 2 0 0 0-2-2zM357.522 9a2 2 0 0 0-1.994 1.85l-.006.15v65a2 2 0 0 0 3.995.15l.005-.15V11a2 2 0 0 0-2-2z" fill="#3DEABF"/>
                <path d="M366.442 26a2 2 0 0 0-1.994 1.85l-.006.15v31a2 2 0 0 0 3.995.15l.005-.15V28a2 2 0 0 0-2-2z" fill="#093769"/>
            </g>
        </g>
    </g>
</svg>
