<svg width="18" height="18" viewBox="0 0 18 18" xmlns="http://www.w3.org/2000/svg">
    <path d="M13.05 0c.886 0 1.598.058 2.175.23a3.806 3.806 0 0 1 2.419 2.17c.32.813.352 1.726.356 2.367v8.283c0 .64-.004 1.656-.356 2.551a3.805 3.805 0 0 1-2.419 2.17c-.577.171-1.29.229-2.175.229h-8.1c-.886 0-1.598-.058-2.176-.23A3.805 3.805 0 0 1 .355 15.6c-.32-.813-.351-1.726-.355-2.367V4.95c0-.64.004-1.656.356-2.551A3.804 3.804 0 0 1 2.774.229C3.28.08 3.888.016 4.626.003L4.95 0h8.1zM9 9.878c-.56 0-1.034.183-1.304.468a.828.828 0 0 0-.239.518c-.045.421-.02.783.03 1.362.047.552.136 1.287.252 2.037.083.533.15.82.211 1.027.1.334.47.626 1.05.626.581 0 .952-.292 1.051-.626.062-.206.129-.494.212-1.027.116-.75.205-1.485.252-2.037.05-.579.075-.941.03-1.362a.828.828 0 0 0-.24-.518c-.27-.285-.744-.468-1.304-.468zm-.016-7.883c-3.445.01-6.268 2.805-6.311 6.25a6.34 6.34 0 0 0 4.234 6.053.085.085 0 0 0 .113-.092 36.107 36.107 0 0 1-.092-.649.218.218 0 0 0-.128-.171A5.527 5.527 0 0 1 3.483 8.27c.029-2.998 2.476-5.442 5.474-5.466a5.526 5.526 0 0 1 5.565 5.52 5.528 5.528 0 0 1-3.318 5.06.218.218 0 0 0-.127.172c-.029.214-.06.432-.092.649a.085.085 0 0 0 .112.092 6.34 6.34 0 0 0 4.235-5.973c0-3.497-2.85-6.34-6.348-6.33zM8.837 4.09A4.252 4.252 0 0 0 4.765 8.27 4.239 4.239 0 0 0 6.62 11.83a.083.083 0 0 0 .13-.074 6.068 6.068 0 0 1-.008-.723.262.262 0 0 0-.082-.206 3.421 3.421 0 0 1-1.083-2.592A3.44 3.44 0 0 1 8.87 4.899a3.434 3.434 0 0 1 3.566 3.428c0 .985-.418 1.874-1.085 2.5a.262.262 0 0 0-.082.206c.013.235.008.464-.007.723a.083.083 0 0 0 .13.074 4.24 4.24 0 0 0-2.555-7.74zm.165 2.245a1.473 1.473 0 1 0 0 2.947 1.473 1.473 0 0 0 0-2.947z" fill="#3B8DED" fill-rule="nonzero"/>
</svg>
