<svg width="18" height="19" viewBox="0 0 18 19" xmlns="http://www.w3.org/2000/svg">
    <path d="M9 15.368c.622 0 1.125.503 1.125 1.125v1.227a1.124 1.124 0 1 1-2.25 0v-1.227c0-.622.503-1.125 1.125-1.125zm-3.989-3.58c.622 0 1.125.503 1.125 1.125v1.227a1.124 1.124 0 1 1-2.25 0v-1.227c0-.622.504-1.125 1.125-1.125zm7.978-2.761c.621 0 1.125.503 1.125 1.125v3.988a1.124 1.124 0 1 1-2.25 0v-3.988c0-.622.503-1.125 1.125-1.125zM9 5.447c.622 0 1.125.503 1.125 1.125v6.546l-.007.122a1.124 1.124 0 0 1-2.243-.122V6.572l.007-.122A1.124 1.124 0 0 1 9 5.447zm-7.875 2.66c.622 0 1.125.503 1.125 1.124v1.228a1.124 1.124 0 1 1-2.25 0V9.23c0-.621.503-1.125 1.125-1.125zm15.75 0c.622 0 1.125.503 1.125 1.124v1.228a1.124 1.124 0 1 1-2.25 0V9.23c0-.621.503-1.125 1.125-1.125zM5.011 4.424c.622 0 1.125.503 1.125 1.125v4.014a1.125 1.125 0 0 1-2.249 0V5.55c0-.622.503-1.125 1.124-1.125zm7.978 0c.621 0 1.125.503 1.125 1.125v1.227a1.124 1.124 0 1 1-2.25 0V5.55c0-.622.503-1.125 1.125-1.125zM9 .845c.622 0 1.125.503 1.125 1.125v1.227a1.124 1.124 0 1 1-2.25 0V1.97c0-.622.503-1.125 1.125-1.125z" fill="#3B8DED" fill-rule="nonzero"/>
</svg>
