<svg width="16" height="15" viewBox="0 0 16 15" xmlns="http://www.w3.org/2000/svg">
    <path d="M12.816 7.807H11.58V4.315L7.001 8.908l-.874-.871 4.582-4.598H7.211V2.203h5.605v5.604zm-5.32 5.7a.257.257 0 0 1-.256.257H1.493a.257.257 0 0 1-.257-.257V7.76c0-.142.115-.256.257-.256h2.242v1.998c0 .987.803 1.79 1.79 1.79h1.971v2.215zM13.236 0h-7.71c-.988 0-1.791.804-1.791 1.791v4.477H1.493C.67 6.268 0 6.937 0 7.76v5.747C0 14.33.67 15 1.493 15H7.24c.823 0 1.492-.67 1.492-1.493v-2.214h4.505c.986 0 1.79-.804 1.79-1.791v-7.71c0-.988-.804-1.792-1.79-1.792z" fill="#FFF" fill-rule="evenodd"/>
</svg>
