<svg viewBox="0 0 196 43" xmlns="http://www.w3.org/2000/svg">
    <g fill="none" fill-rule="evenodd">
        <path d="M191.89 28.81H3.245a3.244 3.244 0 0 1 0-6.488H191.89a3.244 3.244 0 0 1 0 6.488z" fill="#3DEABF"/>
        <path d="M40.444 28.394a1.187 1.187 0 0 0-1.04-.467c-.996 0-1.571.499-1.724 1.496l-1.308 8.337-5.278-8.815a2.78 2.78 0 0 0-.654-.78 1.574 1.574 0 0 0-.945-.238 1.435 1.435 0 0 0-.977.343 1.63 1.63 0 0 0-.498 1.029l-1.891 11.87a1.69 1.69 0 0 0 .239 1.32c.26.32.658.495 1.07.468.41.03.816-.1 1.132-.364.29-.312.468-.71.51-1.133l1.308-8.336 5.277 8.793c.167.315.405.586.696.79.305.18.655.266 1.008.25.775 0 1.24-.464 1.392-1.393l1.87-11.87a1.69 1.69 0 0 0-.187-1.3zm11.1.863c-.263-.887-.824-1.33-1.683-1.33a1.968 1.968 0 0 0-1.06.26 2.484 2.484 0 0 0-.768.841l-7.438 12.037c-.318.527-.346.974-.083 1.341.296.383.765.59 1.247.55a1.768 1.768 0 0 0 1.6-.935l1.412-2.432h6.898l.499 1.954c.08.404.275.775.56 1.07.297.246.676.369 1.06.344.44.025.866-.155 1.153-.489.27-.325.308-.814.114-1.465l-3.51-11.746zm-5.298 7.817 3.241-5.53h.042l1.454 5.53h-4.737zm24.063-8.305c-.222-.437-.651-.655-1.288-.655a1.861 1.861 0 0 0-1.039.26 2.553 2.553 0 0 0-.748.862l-5.526 9.397-2.473-9.106a1.944 1.944 0 0 0-.613-1.112 1.643 1.643 0 0 0-1.007-.301c-.47-.026-.925.18-1.216.55-.284.368-.343.85-.176 1.445l3.324 11.455c.277.929.859 1.393 1.745 1.393.372.015.74-.079 1.06-.27.316-.224.579-.515.768-.853l7.044-11.641c.309-.411.365-.96.145-1.424zm3.557-.842c-1.053 0-1.663.54-1.829 1.621L70.21 41.044c-.116.476-.045.978.197 1.404.229.339.627.509 1.195.509 1.025 0 1.62-.548 1.787-1.642l1.828-11.476c.117-.478.05-.982-.187-1.414-.222-.332-.61-.498-1.163-.498zm15.014.914c-1.094-.637-2.444-.956-4.05-.956-1.774 0-3.284.37-4.53 1.112a7.261 7.261 0 0 0-2.836 3.035 9.568 9.568 0 0 0-.966 4.356 6.928 6.928 0 0 0 .883 3.617 5.656 5.656 0 0 0 2.462 2.235 8.243 8.243 0 0 0 3.615.759c.695-.002 1.39-.054 2.077-.156a11.877 11.877 0 0 0 1.953-.447c.332-.084.628-.274.842-.54.198-.277.323-.599.363-.936l.748-4.74a1.25 1.25 0 0 0-.228-1.102 1.322 1.322 0 0 0-1.039-.395h-3.2a1.561 1.561 0 0 0-1.08.353c-.27.252-.414.61-.395.977a.868.868 0 0 0 .354.728c.286.195.63.29.976.27h1.828l-.477 2.91c-.368.11-.743.194-1.122.25a7.627 7.627 0 0 1-1.122.083c-1.288 0-2.293-.325-3.013-.977-.72-.651-1.08-1.663-1.08-3.035a6.79 6.79 0 0 1 .56-2.796c.349-.807.913-1.5 1.632-2.006a4.471 4.471 0 0 1 2.628-.749 6.096 6.096 0 0 1 3.033.77c.28.158.61.21.925.145.276-.065.524-.218.706-.436a1.573 1.573 0 0 0 .25-1.632 1.415 1.415 0 0 0-.697-.697zm12.426.416c-.263-.887-.824-1.33-1.683-1.33a1.968 1.968 0 0 0-1.06.26 2.484 2.484 0 0 0-.768.841l-7.438 12.037c-.318.527-.346.974-.083 1.341.296.383.765.59 1.247.55a1.768 1.768 0 0 0 1.6-.935l1.412-2.432h6.898l.499 1.954c.08.404.275.775.56 1.07.297.246.676.369 1.06.344.44.025.866-.155 1.153-.489.27-.325.308-.814.114-1.465l-3.51-11.746zm-5.298 7.817 3.242-5.53h.041l1.454 5.53h-4.737zm22.237-7.9c0-.707-.471-1.06-1.413-1.06h-10.284a1.609 1.609 0 0 0-1.174.415 1.552 1.552 0 0 0-.426 1.165.948.948 0 0 0 .374.79c.304.21.67.313 1.039.29h3.407l-1.62 10.291a1.78 1.78 0 0 0 .228 1.393c.275.345.703.532 1.143.499 1.025 0 1.627-.54 1.807-1.622l1.683-10.56h3.657a1.55 1.55 0 0 0 1.163-.427c.29-.32.44-.743.416-1.174zm10.878-.52a7.697 7.697 0 0 0-3.542-.769 7.582 7.582 0 0 0-4.135 1.102 7.425 7.425 0 0 0-2.711 3.045 9.892 9.892 0 0 0-.966 4.46 6.975 6.975 0 0 0 .83 3.513 5.524 5.524 0 0 0 2.338 2.224 8.392 8.392 0 0 0 7.667-.332 7.327 7.327 0 0 0 2.71-3.046c.66-1.4.988-2.933.957-4.48a7.004 7.004 0 0 0-.821-3.492 5.468 5.468 0 0 0-2.327-2.225zm-.717 8.794a4.675 4.675 0 0 1-1.506 2.058 3.823 3.823 0 0 1-2.379.748c-1.053 0-1.88-.311-2.483-.935-.602-.624-.903-1.58-.903-2.869a8.194 8.194 0 0 1 .519-3.035 4.632 4.632 0 0 1 1.496-2.048 3.815 3.815 0 0 1 2.368-.738c1.053 0 1.884.312 2.493.936.61.623.914 1.58.915 2.868a8.138 8.138 0 0 1-.52 3.015zm17.03-8.233c-.866-.734-2.116-1.101-3.75-1.101h-4.384c-1.08 0-1.703.533-1.87 1.6l-1.807 11.33c-.118.478-.039.984.218 1.404.26.348.679.54 1.112.509 1.08 0 1.703-.54 1.87-1.622l.643-4.24h1.725c.387-.023.772.075 1.101.28.304.245.528.574.644.946l1.226 3.222c.14.404.372.77.675 1.07.294.243.669.365 1.05.344.678 0 1.131-.184 1.36-.551.229-.367.218-.876-.031-1.528l-.79-2.037a5.015 5.015 0 0 0-.685-1.206 2.327 2.327 0 0 0-.956-.728 5.109 5.109 0 0 0 2.857-1.486c.727-.77 1.09-1.833 1.09-3.191 0-1.275-.432-2.28-1.298-3.015zm-2.483 4.98c-.457.38-1.108.571-1.953.571h-3.158l.665-4.137h2.66c.858 0 1.485.156 1.88.468.41.346.63.868.592 1.403a2.08 2.08 0 0 1-.686 1.694zm16.177-5.146a7.823 7.823 0 0 0-2.255-.894 10.248 10.248 0 0 0-2.254-.27 7.766 7.766 0 0 0-2.97.561 5.228 5.228 0 0 0-2.203 1.632 4.062 4.062 0 0 0-.831 2.568c-.037.911.288 1.8.904 2.474a4.71 4.71 0 0 0 2.44 1.31l2.349.56a3.26 3.26 0 0 1 1.454.624c.286.252.445.617.436.998-.007.512-.289.98-.737 1.227-.63.353-1.347.519-2.068.478a9.907 9.907 0 0 1-1.994-.219 7.372 7.372 0 0 1-1.995-.717 1.3 1.3 0 0 0-1.142-.114 1.405 1.405 0 0 0-.707.707 1.411 1.411 0 0 0 .644 1.881c.737.4 1.528.69 2.348.863.84.185 1.696.279 2.556.28a8.857 8.857 0 0 0 3.095-.53 5.288 5.288 0 0 0 2.306-1.59 4.048 4.048 0 0 0 .873-2.66 3.277 3.277 0 0 0-.935-2.35c-.623-.651-1.524-1.116-2.7-1.393l-2.328-.561a2.877 2.877 0 0 1-1.215-.572 1.26 1.26 0 0 1-.405-.987 1.485 1.485 0 0 1 .758-1.3 3.7 3.7 0 0 1 2.026-.488c.55.003 1.096.069 1.63.197.53.12 1.043.306 1.528.551.512.25.938.312 1.277.187.317-.104.574-.338.707-.644a1.47 1.47 0 0 0 .062-.977 1.355 1.355 0 0 0-.654-.832zM19.096 1.865A12.523 12.523 0 0 0 15.49.435 16.406 16.406 0 0 0 11.88.002 12.432 12.432 0 0 0 7.126.9a8.367 8.367 0 0 0-3.524 2.611 6.498 6.498 0 0 0-1.33 4.108c0 1.62.482 2.939 1.446 3.958.964 1.02 2.266 1.72 3.907 2.096l3.757.898c1.086.244 1.862.577 2.328.998.457.403.713.987.698 1.596 0 .799-.394 1.453-1.18 1.963-.788.51-1.89.765-3.309.765a15.859 15.859 0 0 1-3.192-.35 11.8 11.8 0 0 1-3.192-1.147c-.71-.354-1.32-.415-1.829-.183a2.247 2.247 0 0 0-1.13 1.131 2.258 2.258 0 0 0 1.03 3.01c1.18.64 2.445 1.104 3.758 1.38 1.343.297 2.714.447 4.09.45a14.178 14.178 0 0 0 4.954-.848 8.463 8.463 0 0 0 3.69-2.545c.932-1.13 1.397-2.55 1.397-4.257A5.243 5.243 0 0 0 18 12.774c-.998-1.041-2.438-1.784-4.323-2.228l-3.724-.898a4.605 4.605 0 0 1-1.945-.914 2.016 2.016 0 0 1-.648-1.58 2.376 2.376 0 0 1 1.213-2.08c.81-.52 1.89-.78 3.242-.781.88.005 1.756.11 2.61.316.848.193 1.669.489 2.444.881.82.4 1.502.5 2.045.3a1.867 1.867 0 0 0 1.13-1.031c.212-.495.247-1.046.1-1.564a2.167 2.167 0 0 0-1.047-1.33zm9.244 7.683 3.923 9.613c.4.954 1.053 1.43 1.962 1.43.4.017.796-.075 1.147-.266.35-.225.649-.52.881-.864l7.05-10.012-1.896 12.04c-.133.799-.017 1.425.349 1.88.366.454.937.681 1.712.682 1.463 0 2.317-.732 2.56-2.196L49.055 2.63c.133-.798.017-1.425-.349-1.88C48.34.297 47.758.07 46.96.07c-.558-.02-1.113.1-1.613.349-.482.28-.887.674-1.18 1.148L34.79 14.87 29.836 1.931a3.381 3.381 0 0 0-.948-1.43A2.387 2.387 0 0 0 27.375.07c-1.463 0-2.305.731-2.527 2.195L21.79 21.49c-.111.798 0 1.424.333 1.879.332.454.92.681 1.762.682 1.44 0 2.283-.732 2.527-2.196L28.34 9.548zM67.64 21.855c.129.646.44 1.24.898 1.713a2.419 2.419 0 0 0 1.696.55 2.264 2.264 0 0 0 1.845-.782c.433-.521.494-1.303.183-2.345l-5.62-18.794C66.224.78 65.326.07 63.952.07a3.15 3.15 0 0 0-1.696.415c-.51.348-.93.81-1.23 1.348L49.12 21.09c-.51.843-.554 1.559-.133 2.146.42.587 1.086.88 1.995.881a2.83 2.83 0 0 0 2.56-1.497l2.261-3.891h11.04l.797 3.126zm-9.476-7.15 5.187-8.849h.067l2.327 8.848h-7.58zm35.561 8.53c.366-.586.35-1.401-.05-2.444l-1.263-3.26a8.022 8.022 0 0 0-1.098-1.929 3.723 3.723 0 0 0-1.53-1.164 8.177 8.177 0 0 0 4.573-2.378c1.164-1.231 1.745-2.933 1.745-5.106 0-2.04-.692-3.648-2.078-4.823C92.64.956 90.64.368 88.024.368h-7.016c-1.73 0-2.727.854-2.993 2.561l-2.893 18.128c-.155.954-.039 1.702.35 2.245a2.04 2.04 0 0 0 1.778.815c1.73 0 2.727-.865 2.993-2.594l1.03-6.786h2.76c.62-.036 1.236.121 1.763.45a3.15 3.15 0 0 1 1.03 1.513l1.962 5.155a4.505 4.505 0 0 0 1.081 1.713 2.43 2.43 0 0 0 1.68.55c1.085 0 1.81-.295 2.177-.882zm-6.8-12.223h-5.054l1.064-6.62h4.256c1.374 0 2.378.25 3.01.75.631.498.947 1.247.947 2.244 0 1.198-.366 2.101-1.097 2.711-.732.61-1.774.915-3.126.915zM98.232 4.16c.486.337 1.072.5 1.662.466h5.453l-2.593 16.464c-.156.954-.034 1.697.366 2.229.399.532 1.008.798 1.828.798 1.64 0 2.605-.865 2.893-2.594l2.693-16.897h5.852a2.481 2.481 0 0 0 1.862-.682 2.577 2.577 0 0 0 .665-1.88c0-1.13-.753-1.696-2.26-1.696h-16.46c-.69-.04-1.367.2-1.878.665a2.483 2.483 0 0 0-.682 1.863c-.018.494.205.965.599 1.264zm41.363 18.36a2.22 2.22 0 0 0 1.18-1.38 2.505 2.505 0 0 0-.1-1.613 2.056 2.056 0 0 0-1.064-1.114c-.499-.233-1.08-.183-1.745.15a8.967 8.967 0 0 1-2.095.814 8.74 8.74 0 0 1-2.062.25c-2.061 0-3.596-.505-4.605-1.514-1.009-1.008-1.513-2.622-1.513-4.84-.023-1.52.26-3.03.831-4.44a7.073 7.073 0 0 1 2.461-3.126c1.086-.765 2.427-1.148 4.023-1.148.768 0 1.533.094 2.278.283.849.234 1.66.587 2.41 1.048a1.617 1.617 0 0 0 1.58.1 2.486 2.486 0 0 0 1.147-1.165 2.668 2.668 0 0 0 .25-1.68 2.011 2.011 0 0 0-1.048-1.413 11.037 11.037 0 0 0-3.076-1.297 13.631 13.631 0 0 0-3.408-.433 13.883 13.883 0 0 0-5.503 1.031 11.305 11.305 0 0 0-4.056 2.878 12.804 12.804 0 0 0-2.51 4.274 15.553 15.553 0 0 0-.865 5.255c0 2.373.476 4.358 1.43 5.954a9.032 9.032 0 0 0 3.923 3.592 12.978 12.978 0 0 0 5.686 1.198c1.11-.011 2.214-.151 3.292-.416a11.117 11.117 0 0 0 3.159-1.247zm6.25 1.597c1.64 0 2.594-.876 2.86-2.627l2.926-18.361c.155-.976.055-1.73-.3-2.262-.354-.532-.975-.798-1.861-.798-1.685 0-2.66.865-2.926 2.594l-2.926 18.394c-.156.954-.05 1.702.315 2.245.366.543 1.003.815 1.912.815zM172.48.368h-16.46c-.69-.04-1.366.2-1.878.665a2.483 2.483 0 0 0-.681 1.863c-.019.494.205.965.598 1.264.486.337 1.072.5 1.663.466h5.453L158.58 21.09c-.155.954-.033 1.697.366 2.229s1.008.798 1.829.798c1.64 0 2.604-.865 2.892-2.594l2.694-16.897h5.852a2.481 2.481 0 0 0 1.862-.682 2.577 2.577 0 0 0 .665-1.88c0-1.13-.754-1.696-2.261-1.696zm21.762.266a2.218 2.218 0 0 0-1.613-.565 2.95 2.95 0 0 0-1.48.349 5.823 5.823 0 0 0-1.413 1.28l-5.885 6.986-3.525-6.653a4.342 4.342 0 0 0-1.197-1.547 2.503 2.503 0 0 0-1.463-.415A2.547 2.547 0 0 0 175.97.6c-.415.342-.682.83-.748 1.364a2.757 2.757 0 0 0 .415 1.763l5.154 9.513-1.23 7.85c-.156.953-.05 1.696.316 2.228.365.532.958.798 1.778.798 1.707 0 2.705-.865 2.993-2.594l1.33-8.316 8.146-9.48a2.61 2.61 0 0 0 .699-1.68 1.892 1.892 0 0 0-.582-1.413z" fill="#FFF"/>
    </g>
</svg>
