<svg viewBox="0 0 475 193" xmlns="http://www.w3.org/2000/svg">
    <g fill="none" fill-rule="evenodd">
        <path d="M466.413 70.072H7.884A7.842 7.842 0 0 1 0 62.188a7.842 7.842 0 0 1 7.884-7.885h458.529a7.842 7.842 0 0 1 7.884 7.885c0 4.388-3.565 7.884-7.884 7.884z" fill="#3DEABF"/>
        <path d="M386.06 118.407H265.876c-9.05 0-16.386 7.953-16.386 17.688 0 9.804 7.336 17.689 16.386 17.689h80.832c1.646 0 23.242 11.312 23.242 11.312l-3.222-11.312h19.402c9.05 0 16.386-7.953 16.386-17.689-.069-9.804-7.404-17.688-16.454-17.688z" fill="#FFF"/>
        <path d="M89.54 155.772h87.344c9.805 0 17.689-7.953 17.689-17.688 0-9.805-7.953-17.689-17.689-17.689H114.77l-17.277-8.981 3.428 9.187-11.45-.206c-9.803 0-17.688 7.953-17.688 17.689 0 9.735 7.953 17.688 17.757 17.688z" fill="#3DEABF" fill-rule="nonzero"/>
        <path d="M272.526 148.23h-94.27c-9.324 0-16.866 7.953-16.866 17.757 0 9.804 7.542 17.757 16.866 17.757h39.833L242.291 193l-3.566-9.256h33.8c9.325 0 16.866-7.953 16.866-17.757 0-9.804-7.541-17.757-16.865-17.757z" fill="#165AA6"/>
        <path d="M181.547 169.484c-.138 0-.275.069-.48.069-.206.068-.343.068-.549.068-.548 0-.96-.137-1.234-.411-.274-.275-.411-.686-.411-1.234v-3.634h1.85c.755 0 1.166-.343 1.166-1.097s-.411-1.097-1.165-1.097h-1.851v-1.508c0-1.029-.48-1.509-1.509-1.509-1.028 0-1.508.48-1.508 1.509v1.508h-.823c-.754 0-1.165.343-1.165 1.097s.411 1.097 1.165 1.097h.823v3.702c0 2.674 1.371 3.977 4.114 3.977.205 0 .48 0 .754-.069.274-.068.548-.068.685-.137.275-.137.48-.274.549-.48.137-.206.137-.48.137-.823 0-.411-.069-.685-.206-.822 0-.137-.205-.206-.342-.206zm10.558-2.605c0-1.509-.412-2.743-1.234-3.634-.823-.891-1.92-1.303-3.36-1.303-.96 0-1.85.206-2.605.617-.754.412-1.303 1.029-1.783 1.783-.41.754-.617 1.645-.617 2.674 0 1.028.206 1.92.686 2.674.411.754 1.097 1.37 1.92 1.782.822.412 1.782.617 2.948.617.548 0 1.028-.068 1.645-.205a7.717 7.717 0 0 0 1.508-.549c.343-.206.549-.411.686-.686a1.671 1.671 0 0 0 0-.822.744.744 0 0 0-.548-.549c-.275-.137-.617-.068-.96.137a3.376 3.376 0 0 1-1.166.412c-.411.068-.754.137-1.097.137-.822 0-1.44-.206-1.92-.549-.48-.342-.754-.89-.822-1.645h5.827c.549-.137.892-.343.892-.891zm-6.788-.754c.069-.686.343-1.235.755-1.577.41-.412.89-.549 1.508-.549 1.234 0 1.92.754 1.988 2.194h-4.25v-.068zm13.232-1.92c.48 0 1.029.137 1.577.411.343.206.617.206.892.069.274-.137.41-.343.548-.617.137-.275.137-.549.069-.823-.069-.274-.275-.48-.617-.686-.412-.205-.892-.41-1.372-.48-.48-.068-.89-.137-1.302-.137-1.029 0-1.989.206-2.743.617-.754.412-1.37.96-1.782 1.714-.412.755-.617 1.646-.617 2.674 0 1.029.205 1.92.617 2.743a4.46 4.46 0 0 0 1.782 1.782c.754.412 1.714.617 2.743.617.411 0 .822-.068 1.302-.137.48-.068.892-.274 1.372-.48.342-.137.548-.411.617-.685a1.671 1.671 0 0 0 0-.823c-.069-.274-.275-.48-.48-.617-.275-.137-.549-.137-.892.068-.274.138-.548.275-.822.275-.275.068-.549.068-.754.068-.755 0-1.372-.274-1.783-.754-.411-.48-.617-1.165-.617-2.057 0-.891.206-1.577.617-2.057.274-.41.891-.685 1.645-.685zm10.49-2.263c-.686 0-1.234.137-1.782.412-.549.274-.96.617-1.303 1.165v-4.182c0-1.028-.48-1.508-1.508-1.508-1.029 0-1.509.48-1.509 1.508v11.244c0 1.028.48 1.508 1.509 1.508.96 0 1.508-.48 1.508-1.508v-4.045c0-.686.206-1.166.548-1.577.343-.411.892-.617 1.509-.617.48 0 .89.137 1.097.411.274.275.342.754.342 1.44v4.32c0 .48.138.89.412 1.096.274.206.617.412 1.097.412 1.028 0 1.508-.48 1.508-1.509v-4.456c-.069-2.742-1.165-4.114-3.428-4.114zm11.45 0c-.686 0-1.303.137-1.852.412-.548.274-1.028.685-1.302 1.234v-.069c0-1.028-.48-1.508-1.44-1.508s-1.44.48-1.44 1.508v6.993c0 1.029.48 1.509 1.509 1.509.96 0 1.508-.48 1.508-1.509v-4.045c0-.685.206-1.165.548-1.577.343-.41.892-.617 1.509-.617.48 0 .891.138 1.097.412.274.274.342.754.342 1.44v4.319c0 .48.138.891.412 1.097.274.205.617.411 1.097.411 1.028 0 1.508-.48 1.508-1.508v-4.457c0-1.37-.274-2.4-.823-3.085-.685-.617-1.508-.96-2.673-.96zm12.752.617c-.754-.41-1.646-.617-2.743-.617-1.028 0-1.92.206-2.742.617-.754.412-1.371.96-1.783 1.783-.411.754-.617 1.645-.617 2.674 0 1.028.206 1.92.617 2.674a4.46 4.46 0 0 0 1.783 1.782c.754.412 1.645.617 2.742.617 1.029 0 1.92-.205 2.743-.617a4.46 4.46 0 0 0 1.782-1.782c.412-.755.617-1.646.617-2.674 0-1.029-.205-1.92-.617-2.674a4.46 4.46 0 0 0-1.782-1.783zm-1.166 6.582c-.411.48-.891.686-1.577.686-.617 0-1.165-.206-1.577-.686-.41-.48-.617-1.165-.617-2.125s.206-1.646.617-2.126c.412-.48.892-.685 1.577-.685.617 0 1.166.206 1.577.685.412.48.617 1.166.617 2.126s-.205 1.645-.617 2.125zm9.941.48h-.548c-.411 0-.686-.137-.891-.411-.206-.275-.343-.686-.343-1.166v-8.775c0-1.029-.48-1.509-1.509-1.509-1.028 0-1.508.48-1.508 1.509v8.912c0 2.606 1.166 3.908 3.497 3.908h.48c.137 0 .342-.068.48-.068.617-.137.96-.549.96-1.303 0-.48-.07-.754-.138-.891a.622.622 0 0 0-.48-.206zm8.845-7.062c-.755-.41-1.646-.617-2.743-.617-1.028 0-1.92.206-2.742.617-.754.412-1.371.96-1.783 1.783-.411.754-.617 1.645-.617 2.674 0 1.028.206 1.92.617 2.674a4.46 4.46 0 0 0 1.783 1.782c.754.412 1.645.617 2.742.617 1.029 0 1.92-.205 2.743-.617a4.46 4.46 0 0 0 1.782-1.782c.411-.755.617-1.646.617-2.674 0-1.029-.206-1.92-.617-2.674a4.46 4.46 0 0 0-1.782-1.783zm-1.166 6.582c-.411.48-.891.686-1.577.686-.617 0-1.165-.206-1.577-.686-.411-.48-.617-1.165-.617-2.125s.206-1.646.617-2.126c.412-.48.892-.685 1.577-.685.617 0 1.166.206 1.577.685.411.48.617 1.166.617 2.126s-.206 1.645-.617 2.125zm13.506-7.13c-.48 0-.822.137-1.097.411-.274.275-.411.617-.411 1.097v.069a2.905 2.905 0 0 0-1.234-1.166c-.549-.274-1.166-.411-1.851-.411-.891 0-1.646.206-2.263.617-.617.411-1.165.96-1.508 1.714a5.995 5.995 0 0 0-.548 2.537c0 .96.205 1.85.548 2.536.343.755.891 1.303 1.508 1.714.617.412 1.372.617 2.263.617.685 0 1.302-.137 1.851-.48a2.69 2.69 0 0 0 1.234-1.234v1.097c0 1.577-.823 2.331-2.537 2.331-.342 0-.754-.068-1.302-.137-.48-.068-1.029-.274-1.646-.548a.874.874 0 0 0-.822 0c-.275.137-.412.343-.549.617a.874.874 0 0 0 0 .823c.137.274.343.548.754.685.549.206 1.097.412 1.714.549a9.5 9.5 0 0 0 2.057.205c1.714 0 2.948-.411 3.84-1.234.89-.822 1.302-2.057 1.302-3.702v-7.267c.137-.96-.343-1.44-1.303-1.44zm-2.125 6.719c-.411.48-.96.685-1.577.685-.685 0-1.234-.205-1.577-.685-.411-.48-.617-1.097-.617-1.92s.206-1.44.617-1.92c.412-.48.96-.685 1.577-.685.686 0 1.166.206 1.577.685.411.48.617 1.097.617 1.92 0 .754-.206 1.44-.617 1.92zm14.329-6.17c-.206-.412-.548-.618-1.028-.618-.412 0-.686.069-.96.275-.206.137-.412.48-.617.89l-2.126 5.143-1.988-5.142c-.206-.48-.411-.754-.617-.96a1.526 1.526 0 0 0-.891-.274c-.686 0-1.097.205-1.303.617-.205.411-.205.823 0 1.371l3.223 7.405-1.029 2.33c-.206.549-.274.96 0 1.372.206.411.617.617 1.097.617.343 0 .686-.069.891-.206.275-.137.48-.48.686-.891l4.662-10.558c.206-.549.206-.96 0-1.372zM98.315 69.112c-.617-.754-1.577-1.234-2.537-1.165-2.4 0-3.84 1.234-4.182 3.633l-3.154 20.294-12.82-21.39c-.412-.755-.96-1.372-1.577-1.92a3.927 3.927 0 0 0-2.331-.549c-.892 0-1.714.275-2.4.823a4.465 4.465 0 0 0-1.234 2.468l-4.594 28.864a4.119 4.119 0 0 0 .549 3.222c.617.754 1.577 1.234 2.605 1.166a3.9 3.9 0 0 0 2.743-.892c.685-.754 1.165-1.714 1.234-2.742L73.77 80.63l12.821 21.391c.411.754.96 1.44 1.714 1.92a5.071 5.071 0 0 0 2.468.617c1.851 0 3.017-1.097 3.36-3.36l4.525-28.863c.342-1.166.205-2.331-.343-3.223zm26.944 2.057c-.617-2.125-1.988-3.222-4.114-3.222-.891-.069-1.782.205-2.605.617-.754.548-1.44 1.234-1.851 2.057l-18.1 29.275c-.754 1.302-.823 2.4-.206 3.29.686.96 1.852 1.44 3.017 1.372a4.208 4.208 0 0 0 3.908-2.263l3.428-5.896h16.797l1.234 4.73c.206.96.686 1.852 1.371 2.606a3.61 3.61 0 0 0 2.606.823c1.097.068 2.125-.343 2.81-1.166.686-.822.755-1.988.275-3.565l-8.57-28.658zm-12.89 18.991 7.885-13.438h.069l3.565 13.438H112.37zm58.55-20.156c-.548-1.029-1.576-1.577-3.153-1.577-.891-.069-1.783.205-2.537.617-.754.548-1.37 1.302-1.85 2.125L149.94 94l-6.033-22.144c-.206-1.029-.685-1.989-1.508-2.674-.686-.48-1.577-.754-2.468-.754-1.166-.069-2.263.411-2.948 1.37-.686.892-.823 2.058-.412 3.497l8.09 27.836c.686 2.262 2.057 3.36 4.251 3.36.891.068 1.783-.206 2.605-.686.754-.549 1.44-1.234 1.851-2.057l17.14-28.315c.755-.96.892-2.331.412-3.428zm8.64-2.057c-2.537 0-4.046 1.302-4.457 3.908l-4.456 27.972c-.275 1.166-.138 2.4.48 3.428.548.823 1.508 1.234 2.879 1.234 2.468 0 3.908-1.302 4.32-3.976l4.456-27.904c.274-1.166.137-2.4-.48-3.428-.48-.823-1.44-1.234-2.743-1.234zm36.473 2.194c-2.674-1.577-5.965-2.331-9.872-2.331-4.32 0-7.953.89-11.039 2.674-2.948 1.714-5.347 4.319-6.924 7.404-1.577 3.29-2.4 6.925-2.331 10.558-.069 3.085.617 6.102 2.125 8.776 1.371 2.4 3.497 4.25 5.965 5.416a19.438 19.438 0 0 0 8.776 1.851c1.714 0 3.359-.137 5.073-.411 1.577-.206 3.222-.617 4.73-1.097.823-.206 1.509-.686 2.057-1.303.48-.685.755-1.44.892-2.262l1.85-11.518c.275-.96.07-1.92-.548-2.674a3.206 3.206 0 0 0-2.536-.96h-7.748a3.565 3.565 0 0 0-2.605.891 2.926 2.926 0 0 0-.96 2.4c0 .686.274 1.371.892 1.782.685.48 1.508.686 2.4.686h4.455l-1.165 7.062c-.891.274-1.783.48-2.742.617-.892.137-1.783.205-2.743.205-3.154 0-5.553-.822-7.336-2.4-1.782-1.576-2.605-4.044-2.605-7.404 0-2.33.411-4.662 1.371-6.787.823-1.988 2.194-3.634 3.977-4.868 1.92-1.234 4.113-1.92 6.376-1.85 2.605 0 5.142.616 7.404 1.85.686.412 1.509.48 2.263.343.685-.137 1.302-.548 1.714-1.028.48-.549.754-1.166.891-1.852.137-.685 0-1.44-.274-2.125-.412-.685-1.029-1.302-1.783-1.645zm30.167 1.028c-.618-2.125-1.989-3.222-4.114-3.222-.891-.069-1.783.205-2.605.617-.755.548-1.44 1.234-1.851 2.057l-18.1 29.275c-.754 1.302-.823 2.4-.206 3.29.686.96 1.851 1.44 3.017 1.372a4.208 4.208 0 0 0 3.908-2.263l3.428-5.896h16.797l1.234 4.73c.206.96.685 1.852 1.371 2.606a3.61 3.61 0 0 0 2.605.823c1.097.068 2.126-.343 2.811-1.166.686-.822.754-1.988.274-3.565l-8.57-28.658zM233.378 90.16l7.884-13.438h.069l3.565 13.438h-11.518zm54.025-19.197c0-1.714-1.166-2.605-3.428-2.605h-25.024a3.85 3.85 0 0 0-2.88 1.029c-.754.754-1.097 1.782-1.028 2.81 0 .755.343 1.44.891 1.92.754.48 1.645.754 2.537.686h8.295l-3.907 25.024c-.275 1.166-.069 2.4.548 3.36.686.822 1.714 1.302 2.811 1.234 2.468 0 3.976-1.303 4.388-3.908l4.113-25.642h8.913c1.029.069 2.057-.342 2.811-1.028.617-.823 1.029-1.851.96-2.88zm26.464-1.234c-2.674-1.302-5.622-1.92-8.638-1.85-3.566-.07-6.994.822-10.079 2.673a18.08 18.08 0 0 0-6.581 7.405c-1.646 3.359-2.4 7.061-2.332 10.832a17.89 17.89 0 0 0 1.989 8.57c1.302 2.331 3.29 4.182 5.69 5.416a20.372 20.372 0 0 0 18.648-.823c2.88-1.782 5.142-4.387 6.582-7.404 1.577-3.428 2.4-7.13 2.331-10.901a17.446 17.446 0 0 0-1.988-8.501c-1.303-2.331-3.29-4.251-5.622-5.417zm-1.782 21.322c-.755 1.989-1.989 3.703-3.634 5.005-1.646 1.234-3.702 1.851-5.76 1.851-2.536 0-4.593-.754-6.032-2.262-1.44-1.508-2.194-3.84-2.194-6.993-.069-2.537.411-5.005 1.234-7.405.754-1.988 1.988-3.702 3.633-5.004 1.646-1.235 3.703-1.852 5.76-1.783 2.536 0 4.593.754 6.033 2.262 1.508 1.509 2.194 3.84 2.194 6.994a18.993 18.993 0 0 1-1.234 7.335zm41.41-19.95c-2.126-1.783-5.142-2.674-9.119-2.674H333.75c-2.605 0-4.113 1.302-4.524 3.908l-4.388 27.56a4.624 4.624 0 0 0 .548 3.429 3.129 3.129 0 0 0 2.674 1.234c2.605 0 4.114-1.303 4.525-3.908l1.577-10.284h4.182c.96-.069 1.851.206 2.674.685.754.618 1.302 1.372 1.577 2.332l2.948 7.815a7 7 0 0 0 1.645 2.606c.686.617 1.646.89 2.537.822 1.645 0 2.742-.48 3.29-1.37.55-.892.55-2.126-.068-3.703l-1.92-4.936c-.41-1.029-.96-2.057-1.645-2.948a6.622 6.622 0 0 0-2.33-1.783c2.673-.411 5.073-1.714 6.924-3.634 1.782-1.85 2.673-4.456 2.673-7.747 0-3.222-1.028-5.622-3.153-7.404zm-6.034 12.066c-1.097.96-2.673 1.371-4.73 1.371h-7.679l1.646-10.078h6.444c2.057 0 3.634.411 4.594 1.165 1.028.823 1.508 2.126 1.44 3.428.068 1.577-.549 3.086-1.715 4.114zm39.285-12.478c-1.714-1.028-3.565-1.714-5.485-2.194-1.782-.411-3.633-.617-5.484-.685-2.468 0-4.937.411-7.2 1.37a12.36 12.36 0 0 0-5.347 3.977c-1.371 1.783-2.057 3.977-1.988 6.24-.069 2.193.686 4.387 2.194 6.033 1.645 1.645 3.702 2.742 5.965 3.153l5.69 1.372c1.303.205 2.468.754 3.565 1.508.686.617 1.097 1.508 1.029 2.4 0 1.233-.686 2.399-1.783 2.947-1.508.892-3.29 1.235-5.005 1.166-1.645 0-3.222-.206-4.868-.548-1.714-.343-3.29-.96-4.867-1.714-.823-.549-1.851-.618-2.811-.275a3.476 3.476 0 0 0-1.714 1.714c-.823 1.714-.137 3.771 1.577 4.594 1.782.96 3.702 1.645 5.69 2.125 2.057.48 4.114.686 6.239.686 2.537 0 5.142-.412 7.542-1.303 2.194-.754 4.113-2.125 5.621-3.84a9.995 9.995 0 0 0 2.126-6.444 7.7 7.7 0 0 0-2.263-5.69c-1.508-1.577-3.702-2.743-6.581-3.36l-5.622-1.371a6.5 6.5 0 0 1-2.948-1.371 2.926 2.926 0 0 1-.96-2.4c0-1.302.685-2.536 1.85-3.154 1.51-.89 3.223-1.302 4.937-1.165 1.303 0 2.674.137 3.977.48 1.302.274 2.536.754 3.702 1.371 1.234.617 2.262.754 3.085.48a2.98 2.98 0 0 0 1.714-1.577c.343-.754.343-1.577.137-2.4-.343-.96-.891-1.713-1.714-2.125zM46.415 4.597c-2.742-1.576-5.69-2.81-8.776-3.496C34.76.484 31.812.073 28.864.073c-3.977-.069-7.885.685-11.587 2.193-3.36 1.303-6.307 3.497-8.57 6.376-2.125 2.811-3.29 6.377-3.154 9.942 0 3.908 1.166 7.13 3.497 9.598 2.33 2.468 5.485 4.182 9.53 5.073l9.118 2.194c2.605.617 4.525 1.372 5.69 2.4 1.098.96 1.715 2.4 1.715 3.908 0 1.92-.96 3.496-2.88 4.8-1.92 1.233-4.593 1.85-8.021 1.85-2.606 0-5.21-.274-7.748-.822a28.364 28.364 0 0 1-7.747-2.811c-1.851-.823-3.29-1.029-4.593-.412a5.353 5.353 0 0 0-2.743 2.743c-1.302 2.742-.205 5.964 2.537 7.335 2.88 1.577 5.965 2.674 9.118 3.36 3.291.686 6.582 1.097 9.942 1.097 4.113.068 8.158-.686 12.066-2.057a20.965 20.965 0 0 0 8.981-6.17c2.263-2.743 3.428-6.17 3.428-10.353.069-3.428-1.234-6.719-3.633-9.118-2.4-2.537-5.896-4.32-10.49-5.417l-9.05-2.193a11.097 11.097 0 0 1-4.73-2.194c-1.097-.96-1.646-2.4-1.577-3.84 0-2.125 1.097-4.045 2.948-5.073 1.988-1.234 4.593-1.92 7.884-1.92 2.126 0 4.25.274 6.376.754 2.057.48 4.045 1.166 5.965 2.126 1.988.96 3.634 1.234 4.936.754 1.234-.412 2.263-1.303 2.743-2.537s.617-2.537.274-3.77c-.48-1.44-1.44-2.606-2.674-3.292zm22.488 18.649 9.53 23.379c.96 2.33 2.536 3.496 4.799 3.496.96.069 1.92-.205 2.81-.617.823-.548 1.578-1.234 2.126-2.125l17.14-24.339-4.594 29.275c-.342 1.92-.068 3.497.823 4.594.891 1.097 2.263 1.645 4.182 1.645 3.565 0 5.622-1.782 6.24-5.348l7.335-46.757c.343-1.92.069-3.497-.823-4.594-.89-1.097-2.33-1.645-4.25-1.645-1.371-.069-2.674.274-3.908.822-1.166.686-2.126 1.646-2.88 2.811l-22.762 32.36L72.536 4.736c-.48-1.372-1.234-2.537-2.33-3.497C69.107.552 67.873.141 66.502.21c-3.565 0-5.622 1.782-6.17 5.347l-7.405 46.758c-.274 1.92 0 3.497.823 4.594.823 1.097 2.262 1.645 4.25 1.645 3.497 0 5.554-1.782 6.171-5.348l4.73-29.96zm95.504 29.96a8.817 8.817 0 0 0 2.193 4.183c1.166.96 2.606 1.44 4.114 1.302 1.714.069 3.36-.617 4.456-1.92 1.029-1.234 1.166-3.153.412-5.69l-13.575-45.66c-1.028-3.429-3.222-5.143-6.513-5.143a7.226 7.226 0 0 0-4.114 1.029c-1.234.822-2.262 1.988-3.016 3.29L119.43 51.424c-1.234 2.057-1.37 3.77-.342 5.21s2.605 2.126 4.867 2.126c2.606.068 5.005-1.371 6.24-3.634l5.484-9.461h26.807l1.92 7.541zM141.37 35.792l12.615-21.528h.138l5.69 21.528H141.37zm86.454 20.774c.892-1.44.823-3.428-.137-5.965l-3.085-7.953c-.685-1.645-1.577-3.29-2.674-4.662-.96-1.234-2.262-2.194-3.702-2.81 4.25-.686 8.159-2.675 11.107-5.76 2.81-3.016 4.25-7.13 4.25-12.41 0-4.936-1.714-8.843-5.073-11.723-3.36-2.88-8.227-4.25-14.603-4.25h-17.072c-4.182 0-6.65 2.056-7.267 6.238l-7.062 44.084c-.411 2.331-.068 4.114.823 5.485 1.029 1.371 2.605 2.125 4.32 1.988 4.182 0 6.65-2.125 7.267-6.307l2.536-16.523h6.72c1.508-.069 3.016.274 4.25 1.097a8.18 8.18 0 0 1 2.537 3.702l4.799 12.547a11.057 11.057 0 0 0 2.605 4.182c1.166.96 2.605 1.44 4.114 1.302 2.674-.137 4.456-.891 5.347-2.262zM211.302 26.81h-12.273l2.606-16.112h10.352c3.36 0 5.76.617 7.336 1.851 1.508 1.234 2.331 3.017 2.331 5.485 0 2.88-.891 5.074-2.674 6.582-1.92 1.508-4.388 2.194-7.678 2.194zm27.423-16.66a6.51 6.51 0 0 0 4.046 1.165h13.232l-6.308 40.04c-.411 2.33-.068 4.113.891 5.416.96 1.302 2.468 1.92 4.457 1.92 3.976 0 6.307-2.126 7.061-6.308l6.514-41.068h14.191c1.646.069 3.291-.48 4.525-1.645a6.539 6.539 0 0 0 1.646-4.594c0-2.742-1.851-4.113-5.485-4.113h-39.97a6.45 6.45 0 0 0-4.594 1.645c-1.165 1.234-1.782 2.88-1.645 4.525 0 1.166.48 2.331 1.44 3.017zm100.578 44.632c1.371-.685 2.468-1.85 2.88-3.36.342-1.302.274-2.673-.275-3.907-.48-1.234-1.44-2.194-2.605-2.742-1.234-.549-2.605-.412-4.25.342-1.578.892-3.292 1.509-5.074 1.989-1.646.41-3.291.617-5.005.617-5.005 0-8.776-1.234-11.175-3.703-2.469-2.468-3.703-6.376-3.703-11.792a27.525 27.525 0 0 1 1.989-10.764 17.173 17.173 0 0 1 5.964-7.61c2.606-1.851 5.896-2.81 9.804-2.81a22 22 0 0 1 5.554.685c2.056.548 4.045 1.44 5.827 2.536 1.166.755 2.606.823 3.84.275a6.2 6.2 0 0 0 2.81-2.811c.618-1.234.823-2.674.618-4.114a4.853 4.853 0 0 0-2.537-3.428c-2.331-1.44-4.868-2.468-7.473-3.154a33.536 33.536 0 0 0-8.296-1.028c-4.593-.069-9.118.754-13.37 2.537a27.908 27.908 0 0 0-9.872 6.993c-2.674 3.016-4.73 6.582-6.102 10.42-1.44 4.114-2.125 8.434-2.125 12.753 0 5.759 1.166 10.558 3.497 14.466 2.262 3.77 5.553 6.856 9.53 8.707 4.319 1.988 9.05 3.017 13.849 2.88 2.673 0 5.347-.343 8.021-1.029 2.674-.48 5.28-1.508 7.679-2.948zm15.152 3.908c3.976 0 6.307-2.125 6.924-6.376l7.13-44.632c.343-2.4.137-4.182-.754-5.485s-2.4-1.92-4.525-1.92c-4.113 0-6.444 2.126-7.13 6.308l-7.13 44.7c-.412 2.332-.137 4.114.754 5.486 1.028 1.234 2.537 1.92 4.73 1.92zM419.244.964h-39.97a6.45 6.45 0 0 0-4.594 1.645c-1.166 1.234-1.783 2.88-1.646 4.525-.068 1.234.48 2.331 1.44 3.085a6.51 6.51 0 0 0 4.045 1.166h13.232l-6.307 40.039c-.412 2.33-.069 4.113.89 5.416.96 1.303 2.47 1.92 4.457 1.92 3.977 0 6.308-2.126 7.062-6.308l6.513-41.067h14.192c1.645.068 3.29-.48 4.525-1.646a6.539 6.539 0 0 0 1.645-4.593c0-2.811-1.85-4.182-5.484-4.182zm52.86.617A5.478 5.478 0 0 0 468.194.21c-1.234-.069-2.468.274-3.565.822-1.302.823-2.468 1.92-3.428 3.086L446.873 21.12l-8.57-16.111c-.685-1.44-1.645-2.743-2.88-3.771C434.396.552 433.162.21 431.86.21a6.284 6.284 0 0 0-4.114 1.302c-1.028.823-1.645 1.989-1.851 3.291-.137 1.508.206 3.017 1.028 4.25L439.47 32.16l-3.017 19.06c-.411 2.33-.137 4.113.754 5.415.892 1.303 2.331 1.92 4.32 1.92 4.182 0 6.581-2.125 7.267-6.307l3.222-20.226L471.83 8.985a6.383 6.383 0 0 0 1.714-4.113c0-1.097-.48-2.4-1.44-3.291z" fill="#FFF"/>
        <path d="M89.745 131.639c0-1.028-.549-1.508-1.714-1.508-.549 0-.96.137-1.303.411-.274.274-.411.617-.411 1.097s.137.823.411 1.097c.274.274.754.411 1.303.411 1.165 0 1.714-.548 1.714-1.508zm-.549 12.683c.275-.274.343-.685.343-1.165v-6.787c0-.549-.137-.96-.411-1.235-.274-.274-.617-.41-1.097-.41-1.029 0-1.508.548-1.508 1.645v6.787c0 .548.137.891.41 1.165.275.275.618.412 1.098.412.548.068.891-.069 1.165-.412zm5.348-1.028v-4.045c0-.686.206-1.165.549-1.577.342-.411.89-.617 1.508-.617.48 0 .891.137 1.097.412.274.274.343.754.343 1.44v4.319c0 .48.137.89.411 1.096.274.275.617.412 1.097.412 1.028 0 1.508-.48 1.508-1.508v-4.457c0-1.371-.274-2.4-.822-3.085-.549-.686-1.44-1.028-2.606-1.028-.685 0-1.302.137-1.85.41-.55.275-1.03.687-1.303 1.235v-.069c0-1.028-.48-1.508-1.44-1.508s-1.44.48-1.44 1.508v6.994c0 1.028.48 1.508 1.508 1.508.96.068 1.44-.48 1.44-1.44zm11.518 0v-4.045c0-.686.206-1.165.549-1.577.342-.411.89-.617 1.508-.617.48 0 .891.137 1.097.412.274.274.343.754.343 1.44v4.319c0 .48.137.89.411 1.096.274.275.617.412 1.097.412 1.028 0 1.508-.48 1.508-1.508v-4.457c0-1.371-.274-2.4-.822-3.085-.549-.686-1.44-1.028-2.606-1.028-.685 0-1.302.137-1.85.41-.55.275-1.03.687-1.303 1.235v-.069c0-1.028-.48-1.508-1.44-1.508s-1.44.48-1.44 1.508v6.994c0 1.028.48 1.508 1.508 1.508.892.068 1.44-.48 1.44-1.44zm15.837.891a4.46 4.46 0 0 0 1.783-1.782c.411-.754.617-1.646.617-2.674s-.206-1.92-.617-2.674a4.46 4.46 0 0 0-1.783-1.782c-.754-.412-1.645-.617-2.742-.617-1.028 0-1.92.205-2.742.617-.754.41-1.372.96-1.783 1.782-.411.754-.617 1.646-.617 2.674s.206 1.92.617 2.674a4.46 4.46 0 0 0 1.783 1.782c.754.412 1.645.617 2.742.617s1.988-.205 2.742-.617zm-4.25-2.262c-.412-.48-.617-1.166-.617-2.125 0-.96.205-1.646.617-2.126.411-.48.891-.685 1.577-.685.617 0 1.165.205 1.576.685.412.48.618 1.166.618 2.126s-.206 1.714-.618 2.125c-.41.48-.89.685-1.576.685s-1.166-.274-1.577-.685zm13.78 1.645 3.017-6.924c.206-.48.274-.96.068-1.303-.205-.411-.548-.617-1.096-.617-.412 0-.686.069-.96.274-.206.137-.412.48-.617.892l-2.126 5.142-2.057-5.142c-.205-.48-.342-.755-.617-.96a1.715 1.715 0 0 0-.89-.274c-.686 0-1.098.205-1.303.617-.206.41-.206.822 0 1.37l3.016 6.857c.343.822.891 1.234 1.714 1.234.891.068 1.508-.343 1.851-1.166zm9.187.823c.48-.274.823-.686 1.029-1.234v.137c0 1.028.48 1.508 1.37 1.508.892 0 1.372-.48 1.372-1.508v-4.388c0-1.44-.343-2.468-1.097-3.153-.754-.686-1.851-1.029-3.36-1.029-.48 0-.96.069-1.508.137-.548.069-1.097.274-1.782.48-.343.137-.617.343-.754.617-.137.274-.137.549-.069.891.069.275.274.48.48.618.274.137.549.137.96 0 .48-.206.96-.343 1.371-.412.411-.068.823-.137 1.166-.137.617 0 1.097.137 1.37.343.275.274.412.685.412 1.234v.343h-.685c-1.372 0-2.469.068-3.291.274-.823.206-1.44.48-1.783.891-.343.412-.548.96-.548 1.714 0 .617.137 1.097.48 1.577.342.48.754.823 1.302 1.097.549.274 1.166.411 1.92.411.617 0 1.165-.137 1.645-.411zm-2.194-1.92c-.274-.205-.411-.548-.411-.89 0-.412.206-.755.617-.892.411-.206 1.166-.274 2.125-.274h.686v.41c0 .618-.206 1.098-.548 1.51-.412.41-.823.548-1.372.548-.411-.069-.822-.137-1.097-.412zm13.438 2.263c.274-.069.549-.069.686-.137.274-.137.48-.275.548-.48.137-.206.137-.48.137-.823 0-.411-.068-.686-.205-.823a.622.622 0 0 0-.48-.205c-.137 0-.275.068-.48.068-.206.069-.343.069-.549.069-.548 0-.96-.137-1.234-.412-.274-.274-.411-.685-.411-1.234v-3.633h1.851c.754 0 1.166-.343 1.166-1.097s-.412-1.097-1.166-1.097h-1.851v-1.509c0-1.028-.48-1.508-1.508-1.508-1.029 0-1.509.48-1.509 1.508v1.509h-.822c-.755 0-1.166.343-1.166 1.097s.411 1.097 1.166 1.097h.822v3.702c0 2.674 1.371 3.976 4.114 3.976.343 0 .617 0 .891-.068zm5.622-13.095c0-1.028-.548-1.508-1.714-1.508-.548 0-.96.137-1.303.411-.342.274-.411.617-.411 1.097s.137.823.411 1.097c.275.274.755.411 1.303.411 1.166 0 1.714-.548 1.714-1.508zm-.617 12.683c.274-.274.343-.685.343-1.165v-6.787c0-.549-.137-.96-.412-1.235-.274-.274-.617-.41-1.097-.41-1.028 0-1.508.548-1.508 1.645v6.787c0 .548.137.891.412 1.165.274.275.617.412 1.096.412.549.068.96-.069 1.166-.412zm9.735-.137a4.46 4.46 0 0 0 1.783-1.782c.411-.754.617-1.646.617-2.674s-.206-1.92-.617-2.674a4.46 4.46 0 0 0-1.783-1.782c-.754-.412-1.645-.617-2.742-.617-1.028 0-1.92.205-2.742.617-.754.41-1.371.96-1.783 1.782-.411.754-.617 1.646-.617 2.674s.206 1.92.617 2.674a4.46 4.46 0 0 0 1.783 1.782c.754.412 1.645.617 2.742.617 1.029 0 1.988-.205 2.742-.617zm-4.25-2.262c-.412-.48-.617-1.166-.617-2.125 0-.96.205-1.646.617-2.126.411-.48.891-.685 1.577-.685.617 0 1.165.205 1.577.685.41.48.617 1.166.617 2.126s-.206 1.714-.617 2.125c-.412.48-.892.685-1.577.685-.686 0-1.166-.274-1.577-.685zm11.175 1.371v-4.045c0-.686.206-1.165.549-1.577.342-.411.89-.617 1.508-.617.48 0 .891.137 1.097.412.274.274.343.754.343 1.44v4.319c0 .48.137.89.411 1.096.274.275.617.412 1.097.412 1.028 0 1.508-.48 1.508-1.508v-4.457c0-1.371-.274-2.4-.822-3.085-.549-.686-1.44-1.028-2.606-1.028-.685 0-1.302.137-1.85.41-.55.275-1.03.687-1.304 1.235v-.069c0-1.028-.48-1.508-1.44-1.508s-1.439.48-1.439 1.508v6.994c0 1.028.48 1.508 1.508 1.508.96.068 1.44-.48 1.44-1.44z" fill="#165AA6" fill-rule="nonzero"/>
        <path d="M274.308 141.717c.823-.548 1.166-1.371 1.166-2.4 0-.754-.206-1.302-.686-1.782-.48-.411-1.097-.686-1.988-.891l-2.057-.343c-.617-.137-.96-.411-.96-.891 0-.275.137-.549.411-.754.275-.206.686-.275 1.303-.275.343 0 .686.069 1.029.137a4.78 4.78 0 0 1 1.165.412c.343.137.617.137.823 0 .205-.137.411-.343.548-.549.137-.274.137-.48.069-.754-.069-.274-.274-.48-.549-.617-.891-.48-1.92-.685-3.085-.685-.823 0-1.577.137-2.262.41-.617.275-1.166.618-1.509 1.098a2.843 2.843 0 0 0-.548 1.714c0 .754.206 1.302.685 1.782.412.48 1.097.755 1.92.892l2.057.342c.686.138 1.028.412 1.028.892a.754.754 0 0 1-.411.685c-.274.206-.686.275-1.234.275-.411 0-.891-.069-1.303-.138-.48-.068-.96-.274-1.508-.48-.343-.137-.617-.137-.823 0-.205.138-.411.343-.48.549-.068.274-.068.48 0 .754.069.274.343.48.617.686.48.274 1.029.411 1.646.548.617.137 1.234.137 1.782.137 1.303.137 2.4-.137 3.154-.754zm9.05-.685c0 .48.137.822.343 1.097.274.274.617.41 1.097.41.96 0 1.44-.479 1.44-1.507v-6.993c0-1.029-.48-1.509-1.509-1.509-.96 0-1.508.48-1.508 1.509v4.045c0 .685-.206 1.165-.549 1.576-.342.412-.822.617-1.37.617-.96 0-1.51-.548-1.51-1.714v-4.524c0-1.029-.48-1.509-1.507-1.509-.96 0-1.509.48-1.509 1.509v4.456c0 1.371.274 2.4.891 3.085.618.686 1.509 1.028 2.743 1.028 1.371 0 2.33-.548 2.948-1.576zm11.792.685c.823-.548 1.166-1.371 1.166-2.4 0-.754-.206-1.302-.686-1.782-.48-.411-1.097-.686-1.988-.891l-2.057-.343c-.617-.137-.96-.411-.96-.891 0-.275.137-.549.412-.754.274-.206.685-.275 1.302-.275.343 0 .686.069 1.029.137a4.78 4.78 0 0 1 1.165.412c.343.137.617.137.823 0 .206-.137.411-.343.548-.549.138-.274.138-.48.069-.754s-.274-.48-.548-.617c-.892-.48-1.92-.685-3.086-.685-.822 0-1.577.137-2.262.41-.617.275-1.166.618-1.508 1.098a2.843 2.843 0 0 0-.549 1.714c0 .754.206 1.302.686 1.782.411.48 1.097.755 1.92.892l2.056.342c.686.138 1.029.412 1.029.892a.754.754 0 0 1-.412.685c-.274.206-.685.275-1.234.275-.411 0-.891-.069-1.303-.138-.48-.068-.96-.274-1.508-.48-.343-.137-.617-.137-.823 0-.205.138-.411.343-.48.549-.068.274-.068.48 0 .754.069.274.343.48.618.686.48.274 1.028.411 1.645.548.617.137 1.234.137 1.783.137 1.302.137 2.33-.137 3.153-.754zm8.433.823c.274-.069.549-.069.686-.137.274-.137.48-.274.548-.48.137-.206.137-.48.137-.823 0-.411-.068-.685-.205-.823a.622.622 0 0 0-.48-.205c-.137 0-.275.068-.48.068-.206.069-.343.069-.549.069-.548 0-.96-.137-1.234-.411-.274-.275-.411-.686-.411-1.235v-3.633h1.851c.754 0 1.166-.343 1.166-1.097s-.412-1.097-1.166-1.097h-1.851v-1.508c0-1.029-.48-1.509-1.508-1.509-1.029 0-1.509.48-1.509 1.509v1.508h-.822c-.755 0-1.166.343-1.166 1.097s.411 1.097 1.166 1.097h.822v3.702c0 2.674 1.371 3.976 4.114 3.976.343 0 .617-.068.891-.068zm7.473-.411c.48-.275.823-.686 1.029-1.235v.138c0 1.028.48 1.508 1.37 1.508.892 0 1.372-.48 1.372-1.508v-4.388c0-1.44-.343-2.468-1.097-3.154-.754-.686-1.851-1.028-3.36-1.028-.48 0-.96.068-1.508.137-.548.068-1.097.274-1.782.48-.343.137-.617.342-.754.617-.138.274-.138.548-.069.891.069.274.274.48.48.617.274.137.548.137.96 0 .48-.206.96-.343 1.37-.411.412-.069.824-.137 1.166-.137.617 0 1.097.137 1.372.342.274.275.411.686.411 1.234v.343h-.686c-1.37 0-2.468.069-3.29.274-.823.206-1.44.48-1.783.892-.343.411-.549.96-.549 1.714 0 .617.138 1.097.48 1.577.343.48.755.822 1.303 1.097.549.274 1.166.41 1.92.41.617.07 1.165-.068 1.645-.41zm-2.194-1.92c-.274-.206-.411-.549-.411-.891 0-.412.206-.755.617-.892.411-.205 1.165-.274 2.125-.274h.686v.411c0 .617-.206 1.097-.549 1.509-.411.411-.822.548-1.37.548-.412 0-.824-.137-1.098-.411zm11.107-10.833c0-1.028-.549-1.508-1.714-1.508-.549 0-.96.137-1.303.411-.342.275-.411.618-.411 1.097 0 .48.137.823.411 1.097.275.275.754.412 1.303.412 1.097 0 1.714-.48 1.714-1.509zm-.617 12.753c.274-.275.343-.686.343-1.166v-6.787c0-.549-.137-.96-.412-1.234-.274-.275-.617-.412-1.097-.412-1.028 0-1.508.549-1.508 1.646v6.787c0 .549.137.891.411 1.166.275.274.617.41 1.097.41.549 0 .892-.136 1.166-.41zm5.348-1.097v-4.045c0-.686.205-1.166.548-1.577.343-.412.891-.617 1.508-.617.48 0 .892.137 1.097.411.275.274.343.754.343 1.44v4.32c0 .479.137.89.411 1.096.275.274.618.411 1.097.411 1.029 0 1.509-.48 1.509-1.508v-4.456c0-1.372-.274-2.4-.823-3.086-.548-.685-1.44-1.028-2.605-1.028-.686 0-1.303.137-1.851.411-.549.275-1.029.686-1.303 1.235v-.07c0-1.027-.48-1.507-1.44-1.507s-1.44.48-1.44 1.508v6.993c0 1.028.48 1.508 1.509 1.508.96.069 1.44-.411 1.44-1.44zm13.437 1.097c.48-.275.823-.686 1.029-1.235v.138c0 1.028.48 1.508 1.37 1.508.892 0 1.372-.48 1.372-1.508v-4.388c0-1.44-.343-2.468-1.097-3.154-.754-.686-1.851-1.028-3.36-1.028-.48 0-.96.068-1.508.137-.548.068-1.097.274-1.782.48-.343.137-.617.342-.754.617-.137.274-.137.548-.069.891.069.274.274.48.48.617.274.137.549.137.96 0 .48-.206.96-.343 1.371-.411.411-.069.823-.137 1.166-.137.617 0 1.097.137 1.37.342.275.275.412.686.412 1.234v.343h-.685c-1.372 0-2.469.069-3.291.274-.823.206-1.44.48-1.783.892-.343.411-.548.96-.548 1.714 0 .617.137 1.097.48 1.577.342.48.754.822 1.302 1.097.549.274 1.166.41 1.92.41a2.384 2.384 0 0 0 1.645-.41zm-2.194-1.92c-.274-.206-.411-.549-.411-.891 0-.412.206-.755.617-.892.411-.205 1.166-.274 2.125-.274h.686v.411c0 .617-.206 1.097-.548 1.509-.412.411-.823.548-1.372.548-.48 0-.822-.137-1.097-.411zm16.112 1.782a4.297 4.297 0 0 0 1.508-1.782c.343-.754.549-1.646.549-2.674s-.206-1.92-.549-2.674c-.343-.754-.822-1.302-1.508-1.714-.617-.411-1.371-.617-2.194-.617a4 4 0 0 0-1.783.412c-.548.274-.96.617-1.234 1.097v-4.183c0-1.028-.48-1.508-1.508-1.508s-1.508.48-1.508 1.508V141.1c0 1.029.48 1.508 1.508 1.508.96 0 1.44-.48 1.44-1.508v-.068c.274.48.685.89 1.234 1.165.548.274 1.165.411 1.851.411.823 0 1.577-.205 2.194-.617zm-4.662-2.33c-.411-.48-.617-1.166-.617-2.126s.206-1.645.617-2.125c.411-.48.891-.686 1.577-.686.617 0 1.165.206 1.577.686.411.48.617 1.165.617 2.125s-.206 1.714-.617 2.125c-.412.48-.892.686-1.577.686-.686 0-1.166-.206-1.577-.686zm11.38-10.285c0-1.028-.548-1.508-1.713-1.508-.549 0-.96.137-1.303.411-.274.275-.411.618-.411 1.097 0 .48.137.823.411 1.097.274.275.754.412 1.303.412 1.165 0 1.714-.48 1.714-1.509zm-.548 12.753c.275-.275.343-.686.343-1.166v-6.787c0-.549-.137-.96-.411-1.234-.274-.275-.617-.412-1.097-.412-1.029 0-1.508.549-1.508 1.646v6.787c0 .549.137.891.41 1.166.275.274.618.41 1.098.41.548 0 .891-.136 1.165-.41zm6.308.41c.137 0 .343-.068.48-.068.617-.137.96-.548.96-1.302 0-.48-.069-.754-.138-.892-.068-.137-.205-.205-.41-.205h-.549c-.412 0-.686-.137-.892-.412-.205-.274-.342-.685-.342-1.165v-8.776c0-1.028-.48-1.508-1.509-1.508-1.028 0-1.508.48-1.508 1.508v8.913c0 2.605 1.165 3.908 3.496 3.908.07.068.206.068.412 0zm5.553-13.163c0-1.028-.548-1.508-1.714-1.508-.548 0-.96.137-1.302.411-.343.275-.412.618-.412 1.097 0 .48.137.823.412 1.097.274.275.754.412 1.302.412 1.166 0 1.714-.48 1.714-1.509zm-.617 12.753c.274-.275.343-.686.343-1.166v-6.787c0-.549-.137-.96-.411-1.234-.275-.275-.617-.412-1.097-.412-1.029 0-1.509.549-1.509 1.646v6.787c0 .549.137.891.412 1.166.274.274.617.41 1.097.41.548 0 .96-.136 1.165-.41zm8.09.41c.274-.068.549-.068.686-.136.274-.137.48-.274.548-.48.137-.206.137-.48.137-.823 0-.411-.068-.685-.205-.823a.622.622 0 0 0-.48-.205c-.137 0-.274.068-.48.068-.206.069-.343.069-.549.069-.548 0-.96-.137-1.234-.411-.274-.275-.411-.686-.411-1.235v-3.633h1.851c.754 0 1.166-.343 1.166-1.097s-.412-1.097-1.166-1.097h-1.714v-1.508c0-1.029-.48-1.509-1.508-1.509-1.029 0-1.509.48-1.509 1.509v1.508h-.822c-.754 0-1.166.343-1.166 1.097s.412 1.097 1.166 1.097h.822v3.702c0 2.674 1.372 3.976 4.114 3.976.206 0 .48-.068.754-.068zm6.17 3.36c.275-.137.48-.48.686-.89l4.662-10.56c.206-.48.206-.959 0-1.302-.205-.411-.548-.617-1.028-.617-.411 0-.686.069-.96.274-.206.138-.411.48-.617.892l-2.125 5.142-1.989-5.142c-.205-.48-.41-.754-.617-.96a1.526 1.526 0 0 0-.89-.274c-.686 0-1.098.205-1.304.617-.205.411-.205.822 0 1.37l3.223 7.405-1.029 2.331c-.205.549-.274.96 0 1.372.206.41.617.617 1.097.617.343-.069.686-.138.892-.275z" fill="#3DEABF" fill-rule="nonzero"/>
    </g>
</svg>
