<svg width="18" height="18" viewBox="0 0 18 18" xmlns="http://www.w3.org/2000/svg">
    <path d="M14.324 7.978c-2.901-1.723-7.687-1.881-10.456-1.04a.842.842 0 1 1-.489-1.612c3.18-.965 8.464-.778 11.804 1.204a.84.84 0 1 1-.859 1.448zm-.095 2.552a.702.702 0 0 1-.965.231c-2.42-1.487-6.107-1.917-8.968-1.049a.703.703 0 0 1-.408-1.342c3.268-.992 7.332-.512 10.11 1.195.33.203.434.636.231.965zm-1.102 2.45a.56.56 0 0 1-.771.186c-2.113-1.29-4.774-1.583-7.906-.867a.56.56 0 0 1-.25-1.094c3.428-.783 6.37-.446 8.742 1.004a.56.56 0 0 1 .185.772zM9 0a9 9 0 1 0 0 18A9 9 0 0 0 9 0z" fill="#3B8DED" fill-rule="evenodd"/>
</svg>
