<svg width="20px" viewBox="0 0 20 14" xmlns="http://www.w3.org/2000/svg">
    <path d="M10.284.002c1.33.008 6.082.059 7.408.417a2.515 2.515 0 0 1 1.761 1.772c.39 1.455.416 4.384.418 4.768v.084c-.002.384-.027 3.314-.406 4.768a2.496 2.496 0 0 1-1.762 1.773c-1.41.377-6.627.413-7.608.417h-.32c-.98-.004-6.197-.04-7.596-.417A2.515 2.515 0 0 1 .418 11.81C.069 10.513.01 8.038.002 7.249v-.496c.01-.789.066-3.263.404-4.562A2.496 2.496 0 0 1 2.168.42C3.503.06 8.256.009 9.587.002zm-2.38 4.041V9.96l5.193-2.958-5.194-2.958z" fill="#3B8DED" fill-rule="nonzero"/>
</svg>
