<svg viewBox="0 0 362 70" xmlns="http://www.w3.org/2000/svg">
    <g fill-rule="nonzero" fill="none">
        <path d="M39.293 3.095a27.576 27.576 0 0 1 7.32 4.965 27.548 27.548 0 0 1 5.155 6.65l.005-.008.206.387c.308.576.596 1.165.86 1.759a27.623 27.623 0 0 1 2.381 12.464 27.502 27.502 0 0 1-2.567 10.447l-.005.008-.002.005-.071.15-.075.158-.003.007-.003.005-.073.15v.002l-.077.154-.001.004-.004.004-.076.155-.002.001-.077.154v.002l-.004.003-.08.153v.001l-.08.155-.002.003v.001a27.43 27.43 0 0 1-6.255 7.879 27.637 27.637 0 0 1-10.561 5.72c-.346.1-.696.193-1.048.28l3.14-6.726a22.207 22.207 0 0 0 10.165-9.882l.008-.013.109-.219.109-.22.035-.072h-.001l.003-.007.002-.001.06-.125.058-.125.002-.003h.001l.116-.255.003-.007.033-.073.099-.224.095-.224.007-.014v-.002a22.148 22.148 0 0 0 1.734-8.073 22.354 22.354 0 0 0-5.861-15.616 22.228 22.228 0 0 0-7.02-5.132 22.287 22.287 0 0 0-8.448-2.074 22.332 22.332 0 0 0-8.611 1.33c-2.6.945-5.026 2.371-7.129 4.221a22.172 22.172 0 0 0-5.075 6.517v.002l-.008.014-.095.185-.034.069-.008.016-.117.238-.001.009h-.002l-.12.25h.001l-.001.004H7.4l-.115.252v.001l-.003.009v-.002l-.033.073-.099.224-.096.225-.006.013v.002A22.156 22.156 0 0 0 6.006 33.61l-3.138 6.725a27.899 27.899 0 0 1-1.197-2.796c-1.23-3.38-1.804-7-1.645-10.653.154-3.515.988-7.06 2.568-10.446l.001-.005.151-.314.004-.009.001-.003.075-.15.076-.158.004-.005.001-.005.077-.15v-.002l.08-.155v-.001l.002-.005.078-.154.082-.153.003-.003v-.003l.081-.153h.002l.08-.152h.002l.002-.005.083-.151.084-.151.004-.007.086-.15.084-.148.002-.002a27.46 27.46 0 0 1 6.142-7.3 27.66 27.66 0 0 1 12.064-5.85l.43-.091-.006.008a27.53 27.53 0 0 1 8.412-.33 27.636 27.636 0 0 1 8.512 2.412m156.49 25.007c0 7.636-5.936 13.797-13.289 13.797a12.989 12.989 0 0 1-8.32-3.014v16.812h-4.968V28.102c0-7.569 5.935-13.796 13.288-13.796 7.353 0 13.288 6.227 13.288 13.796zm-4.968 0c0-4.756-3.741-8.573-8.32-8.573-4.58 0-8.322 3.817-8.322 8.573s3.742 8.64 8.321 8.64c4.58 0 8.321-3.884 8.321-8.64zm34.958 0V41.9h-4.966v-3.014c-2.323 1.875-5.161 3.014-8.321 3.014-7.354 0-13.288-6.161-13.288-13.797 0-7.636 5.934-13.796 13.288-13.796 7.353 0 13.287 6.16 13.287 13.796zm-4.966 0c0-4.756-3.742-8.64-8.321-8.64-4.58 0-8.321 3.884-8.321 8.64s3.741 8.64 8.32 8.64c4.58 0 8.322-3.884 8.322-8.64zm23.051-13.796v5.156c-4.58 0-8.256 3.884-8.256 8.64V41.9h-5.032V28.102c0-7.636 5.999-13.796 13.288-13.796zm8.31 27.593h-4.967V.507h4.967V41.9zm10.127-.067-10.127-13.797 10.127-13.797h6.321l-10.19 13.797 10.19 13.797h-6.321zm14.73-32.752h-5.032V3.924h5.032V9.08zm-5.032 5.226h5.032v27.593h-5.032V14.306zm14.94 27.593h-4.966V28.102c0-7.636 5.934-13.796 13.287-13.796 7.354 0 13.288 6.16 13.288 13.796V41.9h-4.966V28.102c0-4.756-3.742-8.64-8.322-8.64-4.579 0-8.32 3.884-8.32 8.64V41.9zm47.073-.067v-3.015a12.688 12.688 0 0 1-8.32 3.082c-7.29 0-13.289-6.228-13.289-13.797 0-7.636 5.999-13.796 13.288-13.796 7.353 0 13.288 6.16 13.288 13.796V41.9c0 7.568-5.935 13.798-13.288 13.798-6.192 0-11.353-4.42-12.836-10.382h5.225c1.29 3.014 4.257 5.157 7.611 5.157 4.58 0 8.321-3.817 8.321-8.573v-.067zm0-13.73c0-4.756-3.741-8.64-8.32-8.64-4.58 0-8.257 3.884-8.257 8.64s3.677 8.573 8.256 8.573c4.58 0 8.321-3.817 8.321-8.573z" fill="#6EB2E2"/>
        <path d="M95.634 28.102V41.9h-4.967V28.102c0-4.756-3.741-8.64-8.32-8.64-4.58 0-8.322 3.884-8.322 8.64V41.9h-4.967V28.102c0-7.636 5.935-13.796 13.288-13.796 7.353 0 13.288 6.16 13.288 13.796zm30.43 0V41.9h-4.967v-3.014c-2.322 1.875-5.16 3.014-8.32 3.014-7.354 0-13.289-6.161-13.289-13.797 0-7.636 5.935-13.796 13.288-13.796 7.353 0 13.288 6.16 13.288 13.796zm-4.967 0c0-4.756-3.741-8.64-8.32-8.64-4.58 0-8.322 3.884-8.322 8.64s3.742 8.64 8.321 8.64c4.58 0 8.321-3.884 8.321-8.64zm-80.305-.809-5.019 10.759 2.84 4.686-1.109 2.37-3.175-3.958-11.85 25.352s-2.194 6.15-13.14.834c-10.947-5.313-7.645-10.921-7.645-10.921l11.85-25.391-5.037.032 1.11-2.374 5.367-.743 4.936-10.566c4.07-3.956 12.577.364 12.577.364s8.74 3.84 8.295 9.556zm-18.12 30.51L8.12 51.02l-2.126 3.878c-1.351 2.895 4.396 5.534 6.25 6.436 1.79.904 7.422 3.458 8.785.57l1.645-4.103zm5.099-29.934s-8.165-4.318-10.401.476l-1.424 5.295 14.984 6.98 3.076-4.311c2.292-4.98-6.235-8.44-6.235-8.44zM362 8.55a8.01 8.01 0 0 1-2.36 5.688v.003a8.033 8.033 0 0 1-5.697 2.36 8.023 8.023 0 0 1-5.691-2.36l-.005-.003a8.016 8.016 0 0 1-2.36-5.688c0-2.223.903-4.235 2.36-5.692h.005A8.029 8.029 0 0 1 353.942.5c2.226 0 4.241.902 5.698 2.358A8.02 8.02 0 0 1 362 8.55zm-1.936 0a6.098 6.098 0 0 0-1.791-4.323 6.101 6.101 0 0 0-4.33-1.791c-1.691 0-3.221.683-4.329 1.79l.002.001a6.091 6.091 0 0 0-1.791 4.323c0 1.69.683 3.22 1.79 4.327a6.115 6.115 0 0 0 4.328 1.788c1.69 0 3.222-.685 4.33-1.792v.004a6.103 6.103 0 0 0 1.791-4.327zM141.916 34.933l-7.933-20.627h-5.355l10.644 27.593h5.354l10.578-27.593h-5.354l-7.934 20.627zM355.848 9.242l1.912 3.545h-2.24l-1.587-3.049h-1.02v3.05h-2.016V4.235h3.104c.487 0 .923.055 1.304.167.397.115.734.289 1.015.52l.02.017c.28.235.49.52.63.858l.008.021c.137.333.205.708.205 1.126 0 .294-.038.565-.11.818h.001a2.286 2.286 0 0 1-.336.697 2.512 2.512 0 0 1-.525.541 2.89 2.89 0 0 1-.365.24zm-.755-1.811c.048-.12.074-.263.074-.424 0-.177-.024-.33-.07-.456a.808.808 0 0 0-.191-.3h-.003l-.002-.005a.874.874 0 0 0-.327-.185 1.757 1.757 0 0 0-.529-.08v.002h-1.132v2.014h1.093c.383 0 .676-.09.875-.268l.013-.011a.8.8 0 0 0 .2-.287h-.001zm-195.86 34.468h5.031V14.306h-5.031v27.593zm0-32.819h5.031V3.924h-5.031V9.08z" fill="#024E9A"/>
    </g>
</svg>
