<svg width="auto" height="auto" viewBox="0 0 141 27" xmlns="http://www.w3.org/2000/svg">
    <path d="M15.696 1.004a10.664 10.664 0 0 1 2.831 1.922c.8.76 1.47 1.63 1.994 2.574l.002-.003.08.15a10.473 10.473 0 0 1 .617 1.382 10.653 10.653 0 0 1-.357 8.167l-.002.003v.002l-.028.058-.029.061-.001.003-.002.002-.028.058-.03.06v.002l-.001.002-.03.06-.03.06-.002.002-.03.059h-.001l-.031.06v.001a10.616 10.616 0 0 1-2.42 3.05 10.686 10.686 0 0 1-4.49 2.322l1.215-2.602a8.595 8.595 0 0 0 3.931-3.825l.003-.006.042-.085.043-.085.013-.028.001-.002.024-.05.023-.047v-.002l.045-.098.002-.003.012-.028.039-.087.037-.086.002-.006a8.58 8.58 0 0 0 .67-3.126 8.66 8.66 0 0 0-2.266-6.044 8.597 8.597 0 0 0-2.715-1.987 8.613 8.613 0 0 0-3.267-.802 8.63 8.63 0 0 0-3.33.515 8.581 8.581 0 0 0-4.72 4.156l-.003.006-.037.072-.013.026-.003.006-.045.093v.003h-.002l-.046.097v.001l-.045.098-.001.004v-.001l-.013.028-.038.087-.037.087-.003.005a8.582 8.582 0 0 0-.403 5.471L1.609 15.42a10.804 10.804 0 0 1-.463-1.082 10.653 10.653 0 0 1 .357-8.167v-.002l.06-.122v-.003l.001-.001.029-.059.03-.06V5.92l.001-.002.03-.059.03-.06.002-.002.03-.06.031-.06h.002v-.002l.031-.059.032-.059.001-.002.032-.058.033-.058.001-.003.034-.058.032-.058A10.626 10.626 0 0 1 7.532.646 10.849 10.849 0 0 1 8.987.231l.166-.036L9.151.2a10.638 10.638 0 0 1 6.545.805m60.52 9.68c0 2.956-2.294 5.34-5.138 5.34a5.02 5.02 0 0 1-3.218-1.166v6.507h-1.921V10.684c0-2.93 2.295-5.34 5.139-5.34 2.844 0 5.139 2.41 5.139 5.34zm-1.92 0c0-1.84-1.447-3.318-3.218-3.318s-3.218 1.477-3.218 3.318c0 1.84 1.447 3.344 3.218 3.344 1.77 0 3.218-1.503 3.218-3.344zm13.52 0v5.34h-1.921v-1.166c-.898.726-1.996 1.166-3.218 1.166-2.844 0-5.14-2.384-5.14-5.34s2.296-5.34 5.14-5.34c2.843 0 5.139 2.384 5.139 5.34zm-1.921 0c0-1.84-1.447-3.344-3.218-3.344s-3.218 1.503-3.218 3.344c0 1.84 1.447 3.344 3.218 3.344 1.77 0 3.218-1.503 3.218-3.344zm8.915-5.34V7.34c-1.771 0-3.193 1.503-3.193 3.344v5.34H89.67v-5.34c0-2.956 2.32-5.34 5.139-5.34zm3.214 10.68h-1.921V.003h1.92v16.021zm3.916-.026-3.916-5.34 3.916-5.34h2.445l-3.942 5.34 3.942 5.34h-2.445zm5.697-12.677h-1.946V1.325h1.946v1.996zm-1.946 2.023h1.946v10.68h-1.946V5.344zm5.778 10.68h-1.921v-5.34c0-2.956 2.295-5.34 5.139-5.34 2.844 0 5.139 2.384 5.139 5.34v5.34h-1.921v-5.34c0-1.84-1.447-3.344-3.218-3.344s-3.218 1.503-3.218 3.344v5.34zm18.205-.026v-1.166a4.905 4.905 0 0 1-3.218 1.192c-2.82 0-5.14-2.41-5.14-5.34 0-2.956 2.32-5.34 5.14-5.34 2.843 0 5.139 2.384 5.139 5.34v5.34c0 2.93-2.296 5.341-5.14 5.341-2.394 0-4.39-1.71-4.964-4.018h2.021c.499 1.166 1.646 1.996 2.944 1.996 1.77 0 3.218-1.478 3.218-3.319v-.026zm0-5.314c0-1.84-1.447-3.344-3.218-3.344s-3.193 1.503-3.193 3.344c0 1.84 1.422 3.318 3.193 3.318 1.77 0 3.218-1.477 3.218-3.318zm-92.188 0v5.34h-1.921v-5.34c0-1.84-1.447-3.344-3.218-3.344-1.772 0-3.219 1.503-3.219 3.344v5.34h-1.92v-5.34c0-2.956 2.295-5.34 5.139-5.34 2.843 0 5.139 2.384 5.139 5.34zm11.768 0v5.34h-1.92v-1.166c-.899.726-1.997 1.166-3.219 1.166-2.844 0-5.139-2.384-5.139-5.34s2.295-5.34 5.139-5.34c2.844 0 5.139 2.384 5.139 5.34zm-1.92 0c0-1.84-1.448-3.344-3.219-3.344s-3.218 1.503-3.218 3.344c0 1.84 1.447 3.344 3.218 3.344s3.218-1.503 3.218-3.344zm-31.058-.313-1.941 4.164 1.098 1.814-.429.917-1.228-1.532-4.582 9.813s-.849 2.381-5.082.323c-4.234-2.056-2.957-4.227-2.957-4.227l4.583-9.828-1.948.012.429-.918 2.076-.288 1.909-4.09c1.574-1.531 4.864.14 4.864.14s3.38 1.488 3.208 3.7zM9.268 22.18 3.64 19.554l-.822 1.501c-.523 1.121 1.7 2.142 2.417 2.492.692.35 2.87 1.338 3.397.22l.636-1.588zm1.972-11.587s-3.157-1.672-4.022.184l-.551 2.05 5.795 2.702 1.19-1.67c.886-1.927-2.412-3.266-2.412-3.266zM140.5 3.116c0 .86-.349 1.638-.913 2.202a3.105 3.105 0 0 1-2.203.914c-.86 0-1.638-.35-2.201-.913l-.002-.001a3.104 3.104 0 0 1-.913-2.202c0-.86.35-1.64.913-2.203h.002a3.104 3.104 0 0 1 2.2-.913c.861 0 1.64.35 2.204.913.564.564.913 1.343.913 2.203zm-.749 0c0-.653-.265-1.245-.693-1.673a2.359 2.359 0 0 0-1.674-.694 2.36 2.36 0 0 0-1.674.693 2.359 2.359 0 0 0-.692 1.674 2.363 2.363 0 0 0 2.366 2.367c.654 0 1.246-.265 1.674-.694v.002c.428-.429.693-1.021.693-1.675zM55.385 13.328l-3.069-7.984h-2.07l4.116 10.68h2.07l4.092-10.68h-2.071l-3.068 7.984zm82.736-9.944.74 1.372h-.867l-.614-1.18h-.394v1.18h-.78v-3.31h1.2c.189 0 .357.021.505.065.153.044.284.111.392.201l.008.007c.108.09.19.201.244.332l.003.008c.053.129.079.274.079.436 0 .114-.014.218-.043.316a.885.885 0 0 1-.13.27.972.972 0 0 1-.202.21c-.044.034-.09.064-.141.093zm-.292-.701a.524.524 0 0 0 .002-.34.313.313 0 0 0-.075-.117l-.001-.002a.338.338 0 0 0-.127-.071.679.679 0 0 0-.205-.031h-.437v.78h.422c.149 0 .262-.035.339-.104l.005-.004a.31.31 0 0 0 .077-.111zM62.082 16.024h1.946V5.344h-1.946v10.68zm0-12.703h1.946V1.325h-1.946v1.996z" fill="#FFF" fill-rule="nonzero"/>
</svg>
